<svg width="182" height="32" viewBox="0 0 182 32" fill="none" xmlns="http://www.w3.org/2000/svg">
<path d="M52.2822 9.14075H58.6557C62.0926 9.14075 63.8134 10.3044 63.8089 12.6361C63.8089 13.5188 63.7124 14.1995 63.5237 14.6781C63.3349 15.1567 62.9442 15.609 62.356 16.035C63.0408 16.3292 63.5149 16.6893 63.7738 17.1196C64.0328 17.5499 64.1645 18.2613 64.1645 19.2582C64.1645 21.9237 62.356 23.2586 58.7347 23.2586H52.2734V9.14075H52.2822ZM58.2388 12.3595H57.1633V14.621H58.2563C58.6777 14.621 58.9718 14.5288 59.1386 14.3488C59.3053 14.1643 59.3887 13.8745 59.3887 13.4749C59.3887 13.0753 59.2966 12.7899 59.1166 12.623C58.9367 12.4561 58.6382 12.3639 58.2343 12.3639L58.2388 12.3595ZM58.3002 17.6641H57.1633V19.9783H58.3002C58.7918 19.9783 59.121 19.8993 59.2878 19.7368C59.4546 19.5744 59.5424 19.2757 59.5424 18.8322C59.5424 18.3887 59.4503 18.0769 59.2703 17.9145C59.0903 17.7519 58.7655 17.6597 58.3046 17.6597L58.3002 17.6641Z" fill="#29ADF2"/>
<path d="M74.5281 23.241H65.0557V9.14075H69.9368V19.2669H74.5281V23.2454V23.241Z" fill="#29ADF2"/>
<path d="M79.9707 9.14075V18.3799C79.9707 18.7795 80.0715 19.0693 80.273 19.245C80.4753 19.4206 80.813 19.504 81.2958 19.4997C81.7749 19.4997 82.1081 19.4163 82.3059 19.245C82.5029 19.0737 82.6082 18.7927 82.6082 18.3799V9.14075H87.4899V18.1077C87.4899 20.1013 86.9935 21.5021 85.997 22.3057C85.0005 23.1093 83.434 23.5133 81.2921 23.5089C79.154 23.5089 77.5866 23.1137 76.5864 22.3276C75.5854 21.5416 75.0938 20.1583 75.0938 18.1823V9.14075H79.9707Z" fill="#29ADF2"/>
<path d="M88.6624 23.241V9.14075H99.2192V13.0314H93.5433V14.2346H97.9639V18.0857H93.5433V19.3548H99.2192V23.241H88.6624Z" fill="#29ADF2"/>
<path d="M113.91 23.2405H105.89V8.67468H107.51V21.7914H113.905V23.2449L113.91 23.2405Z" fill="#29ADF2"/>
<path d="M115.973 23.2405V8.67468H124.831V10.1062H117.593V15.1386H123.566V16.5482H117.593V21.809H124.831V23.2405H115.973Z" fill="#29ADF2"/>
<path d="M127.61 23.2405V8.67468H130.533L134.659 20.9878L138.785 8.67468H141.709V23.2405H140.089V10.4005H139.786L135.563 22.7136H133.755L129.523 10.4005H129.221V23.2405H127.605H127.61Z" fill="#29ADF2"/>
<path d="M156.208 16.0653C156.208 18.6605 155.795 20.54 154.965 21.708C154.136 22.8761 152.63 23.4557 150.448 23.4557C148.267 23.4557 146.761 22.8585 145.931 21.6685C145.102 20.4741 144.685 18.599 144.689 16.0389C144.689 13.4789 145.111 11.5774 145.953 10.3347C146.796 9.09196 148.293 8.47278 150.444 8.47278C152.59 8.47278 154.088 9.09196 154.939 10.3259C155.786 11.5599 156.211 13.4789 156.211 16.0741L156.208 16.0653ZM146.357 16.0214C146.357 18.1555 146.638 19.6881 147.2 20.619C147.762 21.5499 148.846 22.0198 150.453 22.0198C152.059 22.0198 153.139 21.5632 153.692 20.6498C154.246 19.7364 154.526 18.2082 154.522 16.0609C154.522 13.9135 154.232 12.3459 153.657 11.3667C153.082 10.383 152.007 9.89554 150.427 9.89554C148.851 9.89554 147.775 10.383 147.209 11.3579C146.643 12.3327 146.357 13.8872 146.357 16.0214Z" fill="#29ADF2"/>
<path d="M159.174 23.2405V8.67468H162.203L167.773 21.809H168.216V8.67468H169.815V23.2405H166.847L161.185 10.1062H160.799V23.2405H159.174Z" fill="#29ADF2"/>
<path d="M177.418 9.87847C175.31 9.87847 174.257 10.6733 174.257 12.2585C174.257 13.1412 174.498 13.7516 174.981 14.0809C175.464 14.4102 176.447 14.7395 177.927 15.069C179.406 15.3983 180.455 15.8242 181.073 16.3512C181.692 16.8781 182 17.7432 182 18.9508C182 21.9412 180.451 23.4342 177.347 23.4342C176.056 23.4123 174.77 23.2894 173.498 23.0741L172.743 22.9688L172.91 21.6119C174.815 21.8666 176.267 21.9895 177.268 21.9895C179.344 21.9895 180.38 21.0147 180.38 19.0649C180.38 18.2789 180.152 17.708 179.696 17.3699C179.239 17.0318 178.387 16.7376 177.136 16.4961C175.495 16.1448 174.332 15.6925 173.642 15.1392C172.953 14.5859 172.611 13.6549 172.611 12.3508C172.611 9.73791 174.173 8.43375 177.303 8.43375C178.537 8.45134 179.766 8.55671 180.986 8.74992L181.701 8.85528L181.552 10.221C179.608 9.98827 178.229 9.86967 177.413 9.86967L177.418 9.87847Z" fill="#29ADF2"/>
<path d="M38.2142 14.4007C37.4006 18.1168 35.9026 22.5005 30.0354 25.8871C28.9685 26.5149 27.8251 26.9964 26.6348 27.3191C26.6175 26.9071 26.6714 26.4953 26.794 26.1024C27.1685 25.3908 28.7828 20.6908 27.3838 15.5603C26.3288 11.5988 24.1263 8.05462 21.0646 5.39163C20.7934 5.15444 20.4964 4.91285 20.1821 4.66687C21.9944 3.1163 25.098 1.4164 27.7927 1.20995C30.5563 0.994716 31.3656 1.60528 32.2007 1.26705C32.7861 1.02986 33.4361 0.696025 34.2367 0.871726H34.3056C34.6831 0.974566 35.037 1.15217 35.3473 1.39444C35.7609 1.68356 36.1076 2.06133 36.3632 2.50135C36.3954 2.56258 36.4242 2.62564 36.4493 2.69023C36.8798 3.67855 36.4063 4.60537 37.2758 6.09444C37.8871 7.13986 38.9374 11.0887 38.2142 14.4007Z" fill="#29ADF2"/>
<path d="M25.6852 25.6889C25.3451 26.3302 25.4183 27.8852 25.4398 28.2498C25.4398 28.3728 25.3968 29.73 24.4325 30.446C23.4683 31.162 22.672 30.9951 21.3547 30.7184L20.9975 30.6437C20.3735 30.5848 19.7443 30.6368 19.1379 30.7974C17.1534 31.162 13.8259 31.777 9.29747 29.159C3.01271 25.5264 1.24351 20.9055 0.270664 16.4602C-0.54291 12.7574 0.6753 8.42194 1.29086 7.41166C1.76071 6.59823 2.01028 5.67202 2.01404 4.72783C2.01579 4.3028 2.09309 3.88161 2.24218 3.48474C2.26352 3.42846 2.28944 3.37409 2.31967 3.32222C2.58205 2.88823 2.93114 2.51555 3.34417 2.22848C3.6513 1.98529 4.00235 1.80619 4.37728 1.70138H4.43324C4.57486 1.67163 4.71912 1.65691 4.8637 1.65745C5.35437 1.68569 5.8345 1.81414 6.27562 2.03521L6.49946 2.12745C7.06764 2.30611 7.67192 2.32883 8.25145 2.19334C9.36737 2.02789 10.498 1.99105 11.622 2.08353C14.5491 2.30755 18.1306 4.24465 20.1494 6.0368C23.0843 8.5902 25.194 11.9894 26.2017 15.7882C27.5104 20.5892 26.0166 25.0652 25.6852 25.6889Z" fill="#29ADF2"/>
<path opacity="0.5" d="M15.2922 4.96437C16.996 5.7727 18.566 6.84712 19.9455 8.14895C20.8716 9.05098 21.6908 10.0609 22.3862 11.1578C22.471 11.2893 22.5296 11.4366 22.5586 11.5912C22.5876 11.7459 22.5865 11.9048 22.5553 12.059C22.5241 12.2131 22.4635 12.3596 22.3769 12.4898C22.2902 12.6201 22.1793 12.7317 22.0504 12.8182C21.9215 12.9047 21.7772 12.9645 21.6257 12.9941C21.4742 13.0237 21.3184 13.0226 21.1673 12.9908C21.0162 12.9589 20.8728 12.8971 20.7451 12.8087C20.6174 12.7203 20.5081 12.6071 20.4233 12.4756C20.1693 12.0846 19.9928 11.641 19.7216 11.2457C19.4504 10.8503 19.1749 10.4374 18.8607 10.0509C18.2536 9.28653 17.5746 8.58476 16.8332 7.95568C16.1097 7.35906 15.3443 6.81733 14.5432 6.33484C14.3645 6.23523 14.2319 6.06728 14.1746 5.86793C14.1173 5.66858 14.1399 5.45416 14.2375 5.27185C14.3351 5.08953 14.4997 4.95424 14.6951 4.89576C14.8905 4.83727 15.1006 4.86037 15.2793 4.95998L15.2922 4.96437Z" fill="#F9F9F9"/>
<g opacity="0.5">
<path opacity="0.5" d="M13.2221 5.6543C13.1619 5.64438 13.1028 5.62819 13.0457 5.606C12.3612 5.31926 11.6616 5.07153 10.9501 4.86394C10.7538 4.80571 10.5883 4.6703 10.4898 4.48749C10.3914 4.30469 10.3681 4.08946 10.4252 3.88916C10.4822 3.68886 10.6149 3.51989 10.7941 3.41943C10.9732 3.31897 11.1842 3.29524 11.3804 3.35347C12.1468 3.57887 12.9009 3.84563 13.6395 4.15261C13.8135 4.22661 13.9549 4.36315 14.0369 4.53638C14.1188 4.70961 14.1357 4.9075 14.0843 5.09256C14.0328 5.27763 13.9167 5.43702 13.7578 5.54054C13.5989 5.64407 13.4083 5.68454 13.2221 5.6543Z" fill="#F9F9F9"/>
</g>
</svg>
