<svg width="60" height="35" viewBox="0 0 60 35" fill="none" xmlns="http://www.w3.org/2000/svg">
<path d="M22.9548 6.73456H18.9397V17.9077H22.9548V6.73456Z" fill="#1B1919"/>
<path d="M8.03053 17.9077V14.0048L10.6063 17.9077H15.2275L8.03053 6.73456H4.01538V17.9077H8.03053Z" fill="#1B1919"/>
<path d="M34.5458 17.9077L36.7428 11.6324L38.9398 17.9077H43.1822L39.167 6.73456H34.6216L30.6064 17.9077H34.5458Z" fill="#1B1919"/>
<path d="M14.8487 22.0402V26.3258L12.1215 22.0402H7.50024L14.8487 33.596H18.9396V22.0402H14.8487Z" fill="#1B1919"/>
<path d="M4.01515 22.0405H0V33.5963H4.01515V22.0405Z" fill="#1B1919"/>
<path d="M35.3787 22.0402L36.1363 24.1065H29.3181L30.0757 22.0402H25.9848L21.8181 33.596H26.0605L28.0302 27.7798H37.3484L39.3939 33.596H43.8636L39.6969 22.0402H35.3787Z" fill="#1B1919"/>
</svg>
