<svg width="217" height="20" viewBox="0 0 217 20" fill="none" xmlns="http://www.w3.org/2000/svg">
<path d="M16.5382 9.59129C16.5382 12.8387 15.6441 15.3406 13.8558 17.0972C12.0676 18.8537 9.55278 19.7313 6.31142 19.7298H0V0.279297H6.7397C9.86385 0.279297 12.2765 1.07725 13.9775 2.67317C15.6786 4.26908 16.5322 6.57513 16.5382 9.59129ZM11.0788 9.7782C11.0788 7.99462 10.7257 6.67346 10.0194 5.8147C9.31311 4.95594 8.24092 4.52506 6.80282 4.52206H5.27229V15.4194H6.44443C8.04182 15.4194 9.21318 14.9563 9.95853 14.03C10.7039 13.1036 11.0773 11.6864 11.0788 9.7782Z" fill="#1A1A1A"/>
<path d="M19.9194 19.7298V0.279297H25.203V19.7298H19.9194Z" fill="#1A1A1A"/>
<path d="M37.1226 8.33261H45.5258V18.8269C43.0997 19.6298 40.5573 20.0255 38.0017 19.9979C34.9963 19.9979 32.6768 19.1287 31.0434 17.3901C29.4099 15.6516 28.5909 13.1744 28.5864 9.95854C28.5864 6.81926 29.4828 4.37585 31.2755 2.6283C33.0683 0.880758 35.5808 0.00473655 38.8132 0.000232566C39.9784 -0.00590826 41.141 0.109577 42.2822 0.344794C43.2575 0.541604 44.2105 0.835833 45.1268 1.22306L43.4611 5.34871C42.0225 4.64855 40.4403 4.29309 38.8402 4.31055C37.3059 4.31055 36.1188 4.80973 35.2788 5.80812C34.4387 6.8065 34.0187 8.23276 34.0187 10.0869C34.0187 11.9065 34.3982 13.2922 35.1571 14.2441C35.9159 15.1959 37.0107 15.6733 38.4412 15.6763C39.1665 15.6826 39.8901 15.607 40.5984 15.4511V12.3997H37.1226V8.33261Z" fill="#1A1A1A"/>
<path d="M49.3848 19.7298V0.279297H54.6728V19.7298H49.3848Z" fill="#1A1A1A"/>
<path d="M67.3543 19.7298H62.0933V4.5761H57.3462V0.279297H72.1036V4.5761H67.3701L67.3543 19.7298Z" fill="#1A1A1A"/>
<path d="M85.822 19.7298L84.8617 16.086H78.5368L77.5517 19.7298H71.77L78.1243 0.198242H85.1412L91.5743 19.7298H85.822ZM83.7707 11.7735L82.93 8.58015C82.7361 7.87002 82.4987 6.95197 82.2177 5.82597C81.9367 4.69997 81.7526 3.89301 81.6654 3.40508C81.5873 3.85548 81.4295 4.60088 81.1921 5.6413C80.9546 6.68173 80.4332 8.72579 79.6277 11.7735H83.7707Z" fill="#1A1A1A"/>
<path d="M93.5688 19.7298V0.279297H98.8299V15.487H106.327V19.7298H93.5688Z" fill="#1A1A1A"/>
<path d="M116.311 19.7298V0.279297H121.572V15.487H129.069V19.7298H116.311Z" fill="#FF7369"/>
<path d="M143.635 19.7298H132.076V0.279297H143.635V4.50404H137.337V7.56225H143.17V11.7802H137.337V15.4532H143.635V19.7298Z" fill="#FF7369"/>
<path d="M158.881 19.7298L157.923 16.086H151.596L150.611 19.7298H144.831L151.183 0.198242H158.193L164.626 19.7298H158.881ZM156.83 11.7735L155.991 8.58015C155.794 7.87002 155.557 6.95197 155.279 5.82597C155.001 4.69997 154.817 3.89301 154.726 3.40508C154.645 3.85548 154.488 4.60088 154.253 5.6413C154.019 6.68173 153.497 8.72579 152.689 11.7735H156.83Z" fill="#FF7369"/>
<path d="M173.772 8.33261H182.175V18.8269C179.749 19.6298 177.206 20.0255 174.651 19.9979C171.645 19.9979 169.326 19.1287 167.692 17.3901C166.059 15.6516 165.24 13.1744 165.235 9.95854C165.235 6.81926 166.132 4.37585 167.924 2.6283C169.717 0.880758 172.23 0.00473655 175.462 0.000232566C176.627 -0.00590826 177.79 0.109577 178.931 0.344794C179.906 0.541604 180.859 0.835833 181.776 1.22306L180.11 5.34871C178.671 4.64879 177.089 4.29334 175.489 4.31055C173.952 4.31055 172.764 4.80973 171.925 5.80812C171.087 6.8065 170.668 8.23276 170.668 10.0869C170.668 11.9065 171.047 13.2922 171.806 14.2441C172.565 15.1959 173.663 15.6726 175.099 15.6741C175.824 15.6803 176.548 15.6048 177.256 15.4489V12.3997H173.781L173.772 8.33261Z" fill="#FF7369"/>
<path d="M202.148 0.279297V11.9897C202.148 14.5344 201.427 16.5057 199.984 17.9034C198.542 19.3011 196.462 20 193.745 20C191.09 20 189.05 19.3244 187.625 17.9732C186.201 16.622 185.488 14.6703 185.488 12.118V0.279297H190.774V11.6946C190.774 13.0684 191.033 14.0682 191.547 14.6875C192.061 15.3068 192.821 15.6199 193.824 15.6199C194.9 15.6199 195.679 15.3113 196.161 14.6943C196.646 14.0795 196.887 13.0684 196.887 11.6676V0.279297H202.148Z" fill="#FF7369"/>
<path d="M217 19.7298H205.439V0.279297H217V4.50404H210.7V7.56225H216.534V11.7802H210.7V15.4532H217V19.7298Z" fill="#FF7369"/>
</svg>
